<?xml version="1.0" standalone="no"?>
<!DOCTYPE svg PUBLIC "-//W3C//DTD SVG 20010904//EN"
 "http://www.w3.org/TR/2001/REC-SVG-20010904/DTD/svg10.dtd">
<svg version="1.0" xmlns="http://www.w3.org/2000/svg"
 width="475.000000pt" height="251.000000pt" viewBox="0 0 475.000000 251.000000"
 preserveAspectRatio="xMidYMid meet">

<g transform="translate(0.000000,251.000000) scale(0.100000,-0.100000)"
fill="#000000" stroke="none">
<path d="M840 2116 l0 -133 49 -6 c109 -13 211 -88 263 -195 29 -59 33 -76 33
-152 0 -74 -4 -93 -29 -144 -54 -109 -157 -187 -268 -202 l-48 -7 0 -133 0
-134 33 0 c17 0 63 7 101 15 288 61 502 345 483 640 -11 166 -79 309 -202 423
-98 92 -259 162 -372 162 l-43 0 0 -134z"/>
<path d="M1710 1631 l0 -601 135 0 135 0 0 195 0 195 83 0 82 -1 110 -194 110
-195 148 0 c82 0 146 3 144 8 -2 4 -59 103 -127 220 -67 117 -121 214 -119
216 2 1 20 12 41 24 83 51 161 174 174 279 15 122 -37 255 -135 345 -106 98
-124 102 -478 106 l-303 3 0 -600z m576 320 c85 -52 85 -210 0 -262 -26 -16
-52 -19 -168 -19 l-138 0 0 150 0 150 138 0 c116 0 142 -3 168 -19z"/>
<path d="M2790 2100 l0 -130 160 0 160 0 0 -470 0 -470 140 0 140 0 0 470 0
470 165 0 165 0 0 130 0 130 -465 0 -465 0 0 -130z"/>
</g>
</svg>
